HIERARCHY
ROOT Hips
{
  OFFSET 41.5765 102.804 -11.1443
  CHANNELS 6 Xposition Yposition Zposition Zrotation Xrotation Yrotation
  JOINT Chest
  {
    OFFSET 1.23234e-007 14.8421 1.27319e-009
    CHANNELS 6 Xposition Yposition Zposition Zrotation Xrotation Yrotation
    JOINT Neck
    {
      OFFSET 0.51659 29.8236 6.51843
      CHANNELS 6 Xposition Yposition Zposition Zrotation Xrotation Yrotation
      JOINT Head
      {
        OFFSET 1.16803e-007 7.47049 6.44171e-007
        CHANNELS 6 Xposition Yposition Zposition Zrotation Xrotation Yrotation
        End Site
        {
          OFFSET -4.32676e-008 16.2908 2.16786e-007
        }
      }
    }
    JOINT LeftCollar
    {
      OFFSET 6.64893 27.3161 3.27471
      CHANNELS 6 Xposition Yposition Zposition Zrotation Xrotation Yrotation
      JOINT LeftUpArm
      {
        OFFSET 10.8584 2.41798 -0.945791
        CHANNELS 6 Xposition Yposition Zposition Zrotation Xrotation Yrotation
        JOINT LeftLowArm
        {
          OFFSET 3.77631 -24.5904 -1.70468
          CHANNELS 6 Xposition Yposition Zposition Zrotation Xrotation Yrotation
          JOINT LeftHand
          {
            OFFSET 1.01026 -21.1231 1.74131
            CHANNELS 6 Xposition Yposition Zposition Zrotation Xrotation Yrotation
            End Site
            {
              OFFSET 1.17583e-006 -9.81266 -2.89439e-008
            }
          }
        }
      }
    }
    JOINT RightCollar
    {
      OFFSET -6.11406 27.2248 4.23427
      CHANNELS 6 Xposition Yposition Zposition Zrotation Xrotation Yrotation
      JOINT RightUpArm
      {
        OFFSET -10.4566 2.3285 -0.910794
        CHANNELS 6 Xposition Yposition Zposition Zrotation Xrotation Yrotation
        JOINT RightLowArm
        {
          OFFSET -3.86856 -25.191 -1.74633
          CHANNELS 6 Xposition Yposition Zposition Zrotation Xrotation Yrotation
          JOINT RightHand
          {
            OFFSET -1.04759 -20.6242 1.75213
            CHANNELS 6 Xposition Yposition Zposition Zrotation Xrotation Yrotation
            End Site
            {
              OFFSET -2.03487e-006 -9.50367 -4.31372e-006
            }
          }
        }
      }
    }
  }
  JOINT LeftUpLeg
  {
    OFFSET 9 -3.38008e-006 -5.22998e-009
    CHANNELS 6 Xposition Yposition Zposition Zrotation Xrotation Yrotation
    JOINT LeftLowLeg
    {
      OFFSET -0.575 -51.431 3.90177
      CHANNELS 6 Xposition Yposition Zposition Zrotation Xrotation Yrotation
      JOINT LeftFoot
      {
        OFFSET 2.13082e-007 -43.5882 -3.90177
        CHANNELS 6 Xposition Yposition Zposition Zrotation Xrotation Yrotation
        End Site
        {
          OFFSET 7.44796e-007 -6.93413 15.0046
        }
      }
    }
  }
  JOINT RightUpLeg
  {
    OFFSET -9 6.86154e-007 -3.19541e-009
    CHANNELS 6 Xposition Yposition Zposition Zrotation Xrotation Yrotation
    JOINT RightLowLeg
    {
      OFFSET 0.575 -51.4311 3.90177
      CHANNELS 6 Xposition Yposition Zposition Zrotation Xrotation Yrotation
      JOINT RightFoot
      {
        OFFSET -7.46079e-007 -43.5882 -3.90177
        CHANNELS 6 Xposition Yposition Zposition Zrotation Xrotation Yrotation
        End Site
        {
          OFFSET 4.66716e-007 -6.93413 15.0046
        }
      }
    }
  }
}
MOTION
Frames:	4
Frame Time:	0.0333333
51.5144 85.3047 -10.9473 -5.60218 -2.1207 -77.8966 1.23234e-007 14.8421 1.27319e-009 -8.72601 14.0093 -18.1908 0.51659 29.8236 6.51843 8.36025 -18.8468 15.1884 1.16803e-007 7.47049 6.44171e-007 0.506015 4.42397 15.5149 6.64893 27.3161 3.27471 -2.94784 5.93879 -4.20517 10.8584 2.41798 -0.945791 23.5127 -22.3724 18.0162 3.77631 -24.5904 -1.70468 6.60131 0.671551 -47.8801 1.01026 -21.1231 1.74131 11.2387 -6.98826 1.29165 -6.11406 27.2248 4.23427 -1.96452 7.32629 3.42623 -10.4566 2.3285 -0.910794 -1.36077 2.75987 19.9203 -3.86856 -25.191 -1.74633 -31.4026 -29.8253 -23.9969 -1.04759 -20.6242 1.75213 3.85949 -4.62866 1.1 9 -3.38008e-006 -5.22993e-009 25.7773 -29.6784 26.7905 -0.575 -51.431 3.90177 -11.6263 48.9155 -20.3863 2.1308e-007 -43.5882 -3.90177 11.8472 1.51119 -1.3247 -9 6.86154e-007 -3.17902e-009 -27.532 14.7666 -21.116 0.575 -51.4311 3.90177 -4.66875 22.7126 16.6891 -7.46079e-007 -43.5882 -3.90177 -20.0733 -23.91 -2.15984 
51.4452 85.2764 -10.9786 -5.60854 -2.16013 -77.9119 1.23234e-007 14.8421 1.27319e-009 -8.48584 14.3931 -17.982 0.51659 29.8236 6.51843 8.1925 -19.571 15.204 1.16803e-007 7.47049 6.44171e-007 0.583253 4.74966 15.3903 6.64893 27.3161 3.27471 -2.94784 5.93879 -4.20517 10.8584 2.41798 -0.945791 23.5472 -22.8184 18.3011 3.77631 -24.5904 -1.70468 6.5934 0.691797 -48.5624 1.01026 -21.1231 1.74131 10.6694 -7.94172 1.21373 -6.11406 27.2248 4.23427 -1.96452 7.32629 3.42623 -10.4566 2.3285 -0.910794 -1.35354 2.1767 19.9264 -3.86856 -25.191 -1.74633 -31.2948 -29.9096 -23.451 -1.04759 -20.6242 1.75213 4.08747 -5.34614 1.209 9 -3.38008e-006 -5.22992e-009 25.7205 -29.6874 26.6756 -0.575 -51.431 3.90177 -11.5383 48.9675 -20.5711 2.1308e-007 -43.5882 -3.90177 11.8102 1.4931 -1.31867 -9 6.86154e-007 -3.17904e-009 -27.5428 14.778 -21.0862 0.575 -51.4311 3.90177 -4.73433 22.7901 16.6165 -7.46079e-007 -43.5882 -3.90177 -20.1208 -24.0929 -2.19787 
51.3473 85.2582 -11.0159 -5.42043 -2.17012 -77.8319 1.23234e-007 14.8421 1.27319e-009 -8.45845 14.3611 -17.8755 0.51659 29.8236 6.51843 8.34307 -19.5315 15.1032 1.16803e-007 7.47049 6.44171e-007 0.276207 4.51846 15.3977 6.64893 27.3161 3.27471 -2.94784 5.93879 -4.20517 10.8584 2.41798 -0.945791 23.708 -23.0041 18.5458 3.77631 -24.5904 -1.70468 6.45799 0.794703 -49.7259 1.01026 -21.1231 1.74131 9.81708 -8.80993 1.06925 -6.11406 27.2248 4.23427 -1.96452 7.32629 3.42623 -10.4566 2.3285 -0.910794 -1.32781 2.12464 19.7395 -3.86856 -25.191 -1.74633 -31.13 -30.0291 -23.5932 -1.04759 -20.6242 1.75213 3.12838 -4.77283 0.99201 9 -3.38008e-006 -5.22991e-009 25.6474 -29.898 26.5598 -0.575 -51.431 3.90177 -11.4725 49.0162 -20.5138 2.1308e-007 -43.5882 -3.90177 11.8801 1.41649 -1.31964 -9 6.86154e-007 -3.17907e-009 -27.4266 14.6928 -20.9854 0.575 -51.4311 3.90177 -4.86454 22.8034 16.3493 -7.46079e-007 -43.5882 -3.90177 -20.1378 -24.3617 -2.24714 
51.2193 85.2536 -11.0218 -5.16006 -2.34557 -77.5488 1.23234e-007 14.8421 1.27319e-009 -8.60283 14.1839 -18.0714 0.51659 29.8236 6.51843 8.09059 -19.3263 15.0632 1.16803e-007 7.47049 6.44171e-007 0.409835 4.33426 15.3209 6.64893 27.3161 3.27471 -2.94784 5.93879 -4.20517 10.8584 2.41798 -0.945791 23.9887 -23.0493 18.9769 3.77631 -24.5904 -1.70468 6.26902 0.929776 -50.605 1.01026 -21.1231 1.74131 9.43916 -9.39356 1.00419 -6.11406 27.2248 4.23427 -1.96452 7.32629 3.42623 -10.4566 2.3285 -0.910794 -0.848933 1.7247 19.8084 -3.86856 -25.191 -1.74633 -31.4291 -29.3512 -23.2192 -1.04759 -20.6242 1.75213 4.36366 -4.52777 1.17104 9 -3.38008e-006 -5.22989e-009 25.3838 -30.1582 26.4657 -0.575 -51.431 3.90177 -11.4808 48.8798 -20.4778 2.1308e-007 -43.5882 -3.90177 11.3492 1.91375 -1.30253 -9 6.86154e-007 -3.17909e-009 -27.5565 14.764 -21.1257 0.575 -51.4311 3.90177 -4.75184 22.7395 16.1459 -7.46079e-007 -43.5882 -3.90177 -20.1377 -24.4873 -2.26918 
